<!DOCTYPE svg PUBLIC "-//W3C//DTD SVG 1.1//EN" "http://www.w3.org/Graphics/SVG/1.1/DTD/svg11.dtd">
<!-- Uploaded to: SVG Repo, www.svgrepo.com, Transformed by: SVG Repo Mixer Tools -->
<svg fill="#121869" height="800px" width="800px" version="1.1" id="Capa_1" xmlns="http://www.w3.org/2000/svg" xmlns:xlink="http://www.w3.org/1999/xlink" viewBox="0 0 487.887 487.887" xml:space="preserve">
<g id="SVGRepo_bgCarrier" stroke-width="0"/>
<g id="SVGRepo_tracerCarrier" stroke-linecap="round" stroke-linejoin="round"/>
<g id="SVGRepo_iconCarrier"> <g> <path d="M374.925,426.945H66.549c-2.762,0-5,2.238-5,5s2.238,5,5,5h308.376c2.762,0,5-2.238,5-5S377.686,426.945,374.925,426.945z"/> <path d="M374.925,451.526H66.549c-2.762,0-5,2.238-5,5s2.238,5,5,5h308.376c2.762,0,5-2.238,5-5S377.686,451.526,374.925,451.526z"/> <path d="M465.136,295.564l-20.693-26.197c-0.392-0.496-0.874-0.901-1.41-1.213c2.938-10.562,0.985-22.338-6.315-31.58 l-16.768-21.227V5c0-2.762-2.238-5-5-5H85.01C50.087,0,21.675,28.412,21.675,63.335v379.733c0,24.713,20.105,44.818,44.818,44.818 h348.456c0.018,0,0.034-0.005,0.051-0.005c0.283-0.003,0.565-0.034,0.843-0.085c0.053-0.009,0.107-0.014,0.16-0.026 c0.255-0.055,0.505-0.137,0.75-0.232c0.075-0.029,0.15-0.056,0.223-0.088c0.224-0.1,0.44-0.219,0.65-0.353 c0.077-0.049,0.152-0.1,0.226-0.153c0.195-0.14,0.384-0.292,0.561-0.462c0.07-0.067,0.131-0.14,0.197-0.211 c0.058-0.063,0.12-0.121,0.175-0.188c0.036-0.043,0.058-0.092,0.092-0.136c0.14-0.179,0.265-0.365,0.38-0.563 c0.055-0.094,0.107-0.188,0.155-0.285c0.095-0.19,0.175-0.387,0.245-0.59c0.038-0.11,0.073-0.22,0.103-0.332 c0.052-0.196,0.091-0.395,0.12-0.599c0.018-0.126,0.03-0.251,0.038-0.379c0.007-0.105,0.031-0.206,0.031-0.313V403.25v-65.619 l44.362-35.043C466.478,300.876,466.847,297.731,465.136,295.564z M31.675,443.068c0-19.199,15.619-34.818,34.818-34.818h338.139 c-5.813,8.237-13.319,21.46-13.319,34.818c0,15.313,6.585,27.301,12.286,34.818H66.493 C47.294,477.887,31.675,462.268,31.675,443.068z M401.312,443.068c0-8.73,4.315-17.822,8.637-24.74v51.194 C405.668,463.231,401.312,454.121,401.312,443.068z M409.949,398.25H81.453v-15.463c0-2.762-2.238-5-5-5s-5,2.238-5,5v15.463h-4.96 c-14.044,0-26.595,6.499-34.818,16.641V63.335c0-24.726,16.914-45.57,39.778-51.584v332.512c0,2.762,2.238,5,5,5s5-2.238,5-5 V10.132C82.63,10.054,83.813,10,85.01,10h324.939v192.688l-11.071-14.016l-25.004-31.654c-5.552-7.028-13.509-11.474-22.404-12.518 c-8.886-1.045-17.664,1.439-24.692,6.99l-25.822,20.397l-25.467,20.117l-27.668-35.027c-9.079-11.491-25.871-13.94-37.438-5.453 c-5.967,4.377-9.798,10.819-10.79,18.138c-0.991,7.322,0.984,14.548,5.563,20.346l77.468,98.069 c-5.991-0.977-12.252,0.142-17.571,3.2c-6.037,3.472-10.306,9.013-12.018,15.604c-3.504,13.486,4.564,27.515,17.985,31.271 l52.295,14.642c3.134,0.878,6.342,1.308,9.536,1.308c6.262,0,12.459-1.659,17.91-4.825l17.82,22.559 c0.987,1.249,2.45,1.9,3.927,1.9c1.086,0,2.179-0.352,3.097-1.076l34.345-27.13V398.25z M373.329,361.714l-17.595-22.274 c-1.713-2.167-4.857-2.533-7.023-0.824c-6.381,5.043-14.867,6.742-22.701,4.55l-52.295-14.642 c-8.21-2.299-13.146-10.88-11.003-19.127c1.032-3.972,3.634-7.328,7.324-9.45c3.848-2.211,8.476-2.8,12.698-1.62l11.819,3.309 c2.081,0.587,4.31-0.241,5.509-2.043c1.2-1.802,1.104-4.172-0.237-5.871l-86.822-109.912c-2.882-3.648-4.126-8.195-3.501-12.804 c0.623-4.605,3.037-8.66,6.796-11.418c7.272-5.336,17.894-3.729,23.674,3.59l30.766,38.948c0.001,0.001,0.001,0.002,0.002,0.003 l27.544,34.869c0.196,0.248,0.415,0.465,0.644,0.665c0.035,0.03,0.068,0.063,0.104,0.092c0.222,0.184,0.458,0.343,0.704,0.483 c0.048,0.027,0.095,0.052,0.143,0.078c0.25,0.132,0.507,0.244,0.773,0.331c0.039,0.013,0.079,0.022,0.119,0.034 c0.267,0.08,0.538,0.141,0.814,0.175c0.019,0.002,0.038,0.007,0.057,0.01c0.189,0.021,0.379,0.033,0.57,0.033 c0.069,0,0.138-0.014,0.208-0.017c0.119-0.005,0.236-0.015,0.354-0.029c0.184-0.021,0.366-0.053,0.548-0.095 c0.115-0.026,0.229-0.051,0.342-0.086c0.193-0.059,0.38-0.135,0.566-0.218c0.095-0.042,0.192-0.077,0.285-0.125 c0.275-0.143,0.542-0.308,0.794-0.507c2.167-1.712,2.535-4.856,0.824-7.023l-24.445-30.946l21.544-17.018l24.445,30.946 c0.196,0.248,0.415,0.465,0.644,0.665c0.035,0.03,0.068,0.063,0.104,0.092c0.222,0.184,0.458,0.343,0.704,0.483 c0.048,0.027,0.095,0.052,0.143,0.078c0.25,0.132,0.507,0.244,0.773,0.331c0.039,0.013,0.079,0.022,0.119,0.034 c0.267,0.08,0.538,0.141,0.814,0.175c0.019,0.002,0.038,0.007,0.057,0.01c0.189,0.021,0.379,0.033,0.57,0.033 c0.069,0,0.138-0.014,0.208-0.017c0.119-0.005,0.236-0.015,0.354-0.029c0.184-0.021,0.366-0.053,0.548-0.095 c0.115-0.026,0.229-0.051,0.342-0.086c0.193-0.059,0.38-0.135,0.566-0.218c0.095-0.042,0.192-0.077,0.285-0.125 c0.275-0.143,0.542-0.308,0.794-0.507c2.167-1.712,2.535-4.856,0.824-7.023l-24.445-30.946l17.975-14.198l24.445,30.946 c1.715,2.168,4.858,2.535,7.023,0.824c2.167-1.712,2.536-4.856,0.824-7.023l-24.117-30.53c4.02-1.974,8.525-2.754,13.077-2.222 c6.242,0.732,11.826,3.853,15.722,8.785l25.004,31.654l37.839,47.902c4.227,5.35,6.115,12.023,5.321,18.795 c-0.795,6.769-4.177,12.823-9.525,17.049l-52.841,41.74c-2.167,1.712-2.535,4.856-0.824,7.023c1.714,2.168,4.858,2.535,7.023,0.824 l52.83-41.732c0.002-0.002,0.005-0.003,0.007-0.005c0.008-0.006,0.015-0.012,0.022-0.019l8.811-6.96l14.495,18.351L373.329,361.714 z"/> </g> <g> <g> <path d="M309.445,317.61c-1.408,0-2.809-0.592-3.797-1.745l-13.542-15.79c-1.798-2.096-1.557-5.253,0.54-7.05 c2.096-1.799,5.253-1.557,7.05,0.54l13.542,15.79c1.798,2.096,1.557,5.253-0.54,7.05 C311.755,317.215,310.598,317.61,309.445,317.61z"/> </g> </g> </g>
</svg>